<svg width="354" height="401" viewBox="0 0 354 401" fill="none" xmlns="http://www.w3.org/2000/svg">
<path fill-rule="evenodd" clip-rule="evenodd" d="M326.68 6.93836C291.168 -4.83616 188.187 -7.04405 56.4368 77.9901C35.7347 91.3517 24.03 101.28 18.8556 108.784C16.2724 112.53 15.3625 115.606 15.6978 118.165C16.0313 120.712 17.6137 122.865 20.2847 124.736C22.961 126.61 26.6852 128.168 31.194 129.521C35.6974 130.872 40.9517 132.01 46.6686 133.058C52.0366 134.043 57.8012 134.947 63.7239 135.876C64.108 135.936 64.4929 135.996 64.8783 136.057C71.2031 137.05 77.6875 138.078 84.0286 139.267C96.7011 141.643 108.849 144.669 118.051 149.368C127.256 154.069 133.612 160.5 134.488 169.712C135.359 178.88 130.779 190.637 118.578 205.952C106.364 221.284 86.4479 240.262 56.4753 263.894C32.5207 282.78 17.057 298.304 8.69144 310.908C0.318883 323.523 -0.860564 333.071 3.43288 340.144C7.76141 347.274 17.7675 352.113 32.3464 354.968C46.8925 357.818 65.8505 358.666 87.8856 357.943C131.467 356.512 186.981 348.936 243.978 338.621C215.949 305.734 184.862 265.189 159.84 230.865L159.634 230.583L159.828 230.293C186.706 190.063 234.935 133.547 292.288 94.7357C302.704 87.6874 313.424 81.2206 324.375 75.5407C313.854 51.3442 318.097 25.4961 326.68 6.93836ZM325.267 75.0801C314.828 51.0074 319.17 25.2585 327.822 6.85538L328.06 6.3496L327.531 6.16936C292.155 -5.88304 188.484 -8.42645 55.8946 77.1499C35.1906 90.5127 23.3307 100.533 18.0324 108.216C15.3792 112.063 14.3257 115.39 14.7063 118.295C15.0886 121.214 16.9013 123.586 19.711 125.555C22.5153 127.519 26.3574 129.114 30.9067 130.479C35.4614 131.845 40.757 132.991 46.4882 134.042C51.8699 135.029 57.6471 135.935 63.5666 136.863C63.9516 136.924 64.3371 136.984 64.7233 137.045C71.0491 138.038 77.5197 139.064 83.8444 140.25C96.5034 142.623 108.53 145.629 117.596 150.259C126.658 154.887 132.663 161.082 133.492 169.807C134.325 178.577 129.953 190.07 117.796 205.329C105.651 220.574 85.8035 239.497 55.8561 263.108C31.8747 282.016 16.312 297.618 7.85826 310.355C-0.588449 323.081 -2.02112 333.087 2.57805 340.663C7.14213 348.181 17.5333 353.086 32.1542 355.95C46.8077 358.82 65.8517 359.667 87.9184 358.942C131.703 357.504 187.494 349.876 244.729 339.502C259.856 357.21 274.064 372.644 285.911 383.608C294.394 391.459 301.711 397.061 307.315 399.549C310.112 400.791 312.56 401.293 314.542 400.831C316.573 400.358 318.007 398.9 318.801 396.498C319.587 394.122 319.765 390.785 319.313 386.426C318.859 382.059 317.768 376.622 315.979 370.02C313.092 359.364 308.378 345.645 301.563 328.441C340.654 320.345 378.785 311.494 412.555 302.996L413.394 302.785L412.793 302.163C394.979 283.747 373.922 263.65 353.569 246.79C333.23 229.942 313.545 216.285 298.481 210.798C290.96 208.059 284.482 207.315 279.635 209.354C274.736 211.414 271.662 216.238 270.788 224.221C269.915 232.194 271.219 243.412 275.154 258.463C279.091 273.523 285.672 292.457 295.384 315.875C297.089 319.987 298.692 323.929 300.194 327.703C281.92 331.479 263.445 335.088 245.116 338.415C217.101 305.58 185.959 264.984 160.854 230.558C187.72 190.422 235.769 134.19 292.848 95.5639C303.222 88.5439 313.89 82.1077 324.781 76.4561C327.243 81.9148 330.466 87.2834 334.571 92.4587C357.22 121.017 406.581 143.526 502.504 142.918L502.498 141.918C406.677 142.525 357.714 120.03 335.354 91.8373C331.293 86.7159 328.105 81.4011 325.672 75.9957C374.612 50.8181 427.989 41.5593 479.266 66.3677L479.701 65.4675C428.06 40.4829 374.369 49.8342 325.267 75.0801ZM245.868 339.295C260.83 356.791 274.872 372.029 286.591 382.875C295.065 390.717 302.279 396.219 307.72 398.635C310.446 399.845 312.649 400.245 314.315 399.857C315.931 399.481 317.14 398.336 317.852 396.184C318.572 394.005 318.765 390.834 318.318 386.53C317.872 382.234 316.795 376.854 315.014 370.281C312.13 359.64 307.41 345.906 300.569 328.647C282.422 332.398 264.076 335.984 245.868 339.295ZM301.188 327.498C339.994 319.463 377.865 310.682 411.472 302.237C393.805 284.01 373.02 264.201 352.931 247.56C332.599 230.718 313.027 217.161 298.139 211.738C290.685 209.023 284.512 208.388 280.023 210.276C275.584 212.142 272.634 216.548 271.782 224.33C270.929 232.122 272.198 243.201 276.121 258.21C280.043 273.21 286.605 292.098 296.308 315.492C298.039 319.667 299.665 323.668 301.188 327.498Z" fill="black"/>
</svg>
