<svg width="62" height="66" viewBox="0 0 62 66" fill="none" xmlns="http://www.w3.org/2000/svg">
<path id="Star 2" d="M34.4414 4.30748L35.0674 7.68451C35.718 11.1942 40.0002 12.5856 42.5895 10.1286L45.0809 7.76447C47.8963 5.09301 52.3199 8.30697 50.6492 11.81L49.1707 14.9101C47.6341 18.1319 50.2806 21.7746 53.8196 21.3088L57.2248 20.8606C61.0727 20.3541 62.7624 25.5544 59.3516 27.4065L56.3334 29.0454C53.1965 30.7487 53.1965 35.2513 56.3334 36.9546L59.3516 38.5935C62.7624 40.4456 61.0727 45.6459 57.2248 45.1394L53.8196 44.6912C50.2806 44.2254 47.6341 47.8681 49.1707 51.0899L50.6492 54.19C52.3199 57.693 47.8963 60.907 45.0809 58.2355L42.5895 55.8714C40.0002 53.4144 35.718 54.8058 35.0674 58.3155L34.4414 61.6925C33.734 65.5086 28.266 65.5086 27.5586 61.6925L26.9326 58.3155C26.282 54.8058 21.9998 53.4144 19.4105 55.8714L16.9191 58.2355C14.1037 60.907 9.6801 57.693 11.3508 54.19L12.8293 51.0899C14.3659 47.8681 11.7194 44.2254 8.18043 44.6912L4.77522 45.1394C0.927328 45.6459 -0.762354 40.4456 2.64835 38.5935L5.66665 36.9546C8.80351 35.2513 8.80351 30.7487 5.66665 29.0454L2.64834 27.4065C-0.762354 25.5544 0.927328 20.3541 4.77523 20.8606L8.18043 21.3088C11.7194 21.7746 14.3659 18.1319 12.8293 14.9101L11.3508 11.81C9.6801 8.30697 14.1037 5.09301 16.9191 7.76447L19.4105 10.1286C21.9998 12.5856 26.282 11.1942 26.9326 7.68451L27.5586 4.30747C28.266 0.491405 33.734 0.491404 34.4414 4.30748Z" stroke="black"/>
</svg>
