<svg width="60" height="58" viewBox="0 0 60 58" fill="none" xmlns="http://www.w3.org/2000/svg">
<path id="Star 1" d="M14.3571 10.0065C18.3661 11.8242 23.0432 9.57186 24.1216 5.30409C25.664 -0.799543 34.336 -0.799541 35.8784 5.30409C36.9568 9.57186 41.6339 11.8242 45.6429 10.0065C51.3766 7.40675 56.7835 14.1868 52.9731 19.1982C50.3088 22.7023 51.464 27.7633 55.3848 29.7644C60.9922 32.6262 59.0625 41.0809 52.7687 41.2263C48.3679 41.328 45.1313 45.3867 46.0114 49.6997C47.2701 55.8681 39.4568 59.6308 35.4189 54.8008C32.5956 51.4235 27.4044 51.4235 24.5811 54.8008C20.5432 59.6308 12.7299 55.8681 13.9886 49.6997C14.8687 45.3867 11.6321 41.328 7.23133 41.2263C0.937525 41.0809 -0.992191 32.6262 4.61521 29.7644C8.53601 27.7633 9.69116 22.7023 7.02687 19.1982C3.21648 14.1868 8.62342 7.40675 14.3571 10.0065Z" stroke="black"/>
</svg>
